<?xml version="1.0"?>
<svg width="300" height="40" xmlns="http://www.w3.org/2000/svg" xmlns:svg="http://www.w3.org/2000/svg">
 <g>
  <title>Layer 1</title>
  <g id="svg_1">
   <path id="svg_2" d="m103.975998,0l-2.350998,8.229l18.598,0l0,-0.001l0.014999,0l-6.741005,23.576001l0,0.001999l-2.316994,8.181l13.017998,0c3.172997,0 6.694992,-3.352001 7.735992,-6.488998c0.031006,-0.092003 0.06601,-0.183002 0.09201,-0.275002c0.026001,-0.092999 0.041992,-0.185001 0.063995,-0.274998l0.326004,-1.142002l0,-0.001999l6.741989,-23.574001l20.81601,0l2.350006,-8.23l-58.348007,0z" fill="#DD4D50"/>
   <path id="svg_3" d="m70.925003,0l-0.795006,0l-0.904999,0l-18.923,0l-22.586998,0l-10.094,0c-3.912001,0 -7.977,2.954 -9.489,6.753c-0.113,0.284 -0.215,0.571 -0.298,0.862c-0.084,0.291 -0.145,0.579 -0.194,0.863l-7.421,26.058c-0.859,3.007999 0.885,5.450001 3.893,5.450001l2.171,0l10.037,0l22.585999,0l14.708,0c3.265003,0 6.894001,-3.498001 7.827003,-6.760002l0,-0.002998c0,0 0,0 0,-0.003002l0.403999,-1.413998l2.374001,-8.318001l1.979996,-6.938l-1.700996,0l-18.921001,0l-12.321999,0l-1.98,6.938l20.195999,0l-11.079002,8.318001l-19.745998,0c-1.077,-0.034 -1.701,-0.894001 -1.443001,-1.975l5.602001,-19.625c0.348999,-1.061001 1.427999,-1.908 2.501999,-1.976001l20.646,0l18.921001,0l1.699997,0l2.327003,-8.15l0.024002,-0.079999z" fill="#DD4D50"/>
   <path id="svg_4" d="m79.339996,0.081l-2.327003,8.148l9.122002,0.052l-11.496002,8.268l-4.353996,15.255999l-2.317001,8.181002l12.743004,0c0.098,0.004002 0.190002,0.014 0.289001,0.014s0.197998,-0.009998 0.296997,-0.014c2.968002,-0.144001 5.985001,-2.408001 7.101006,-5.292c0.076996,-0.201 0.371994,-1.250999 0.43,-1.457001c0.057999,-0.206001 0.105995,-0.406998 0.142998,-0.605999l0.234001,-0.825001l6.730995,-23.576l2.352005,-8.23l-18.925003,0l-0.023003,0.081z" fill="#DD4D50"/>
  </g>
  <g id="svg_5">
   <path id="svg_6" d="m167.143997,34.367001l2.054001,0l0.037003,2.73c-0.235001,0.122002 -0.792007,0.197002 -1.451004,0.197002c-2.503998,0 -4.121994,-1.732002 -4.121994,-4.412003c0,-2.723999 1.620987,-4.351 4.337997,-4.351c1.565002,0 2.466003,0.312 3.076004,0.582001l0.072998,0.034l0.616989,-2.625999c-0.655991,-0.326 -1.979996,-0.675001 -3.725998,-0.675001c-4.64299,0 -7.654999,2.827 -7.672989,7.198997c-0.021011,2.040001 0.653,3.819 1.896988,5.013c1.262009,1.254002 3.049011,1.864002 5.459,1.864002c1.662003,0 3.399002,-0.400002 4.513,-0.839001l0,-7.26l-5.091995,0l0,2.544001z" fill="#555655"/>
   <rect id="svg_7" height="13.792" width="3.159" fill="#555655" y="25.986" x="175.385"/>
   <polygon id="svg_8" points="180.939,28.712 184.516,28.712 184.516,39.777 187.673,39.777 187.673,28.712 191.309,28.712    191.309,25.986 180.939,25.986  " fill="#555655"/>
   <path id="svg_9" d="m199.878998,26.035l-4.095993,13.742001l3.275986,-0.049l0.883011,-3.456001l3.75,-0.048l1.089996,3.553001l3.330002,0l-4.218002,-13.792l-4.014999,0.049999zm0.585007,7.792l0.768997,-2.812c0.130005,-0.474998 0.253998,-1.039 0.375,-1.588999c0.063004,-0.295 0.128998,-0.588001 0.192001,-0.859001l0.057007,0.237001c0.174988,0.723 0.373993,1.537998 0.569992,2.210999l0.804001,2.812l-2.766998,0z" fill="#555655"/>
   <path id="svg_10" d="m220.667999,29.511999c-0.710007,0 -1.322006,0.162001 -1.871994,0.496c-0.479004,0.299999 -0.915009,0.719999 -1.184006,1.223999c-0.001007,0.001001 -0.003006,0.003 -0.005005,0.005001c-0.431992,-1.079 -1.445999,-1.724001 -2.709,-1.724001c-1.099991,0 -1.97699,0.419001 -2.606995,1.215c-0.121002,0.139999 -0.225998,0.277 -0.309998,0.402l-0.205002,-1.395l-2.600006,0l0.003006,0.07c0.041992,0.871 0.080002,1.927 0.080002,3.159002l0,6.813999l3.05899,0l0,-5.841c0,-0.200001 0.011002,-0.497002 0.113998,-0.75c0.183014,-0.517002 0.629013,-1.069 1.339005,-1.069c1.145996,0 1.317001,1.278999 1.317001,2.042l0,5.618l3.057007,0l0,-5.862999c0,-0.219002 0.036987,-0.542004 0.115997,-0.768002c0.166992,-0.497002 0.600998,-1.028999 1.319,-1.028999c0.899002,0 1.356995,0.742001 1.356995,2.202l0,5.458l3.057007,0l0,-5.902c0.001999,-2.732 -1.240997,-4.364 -3.326004,-4.364z" fill="#555655"/>
   <path id="svg_11" d="m229.979004,29.511999c-3.397003,0 -4.945999,2.775999 -4.945999,5.356001c0,3.202 1.953003,5.112999 5.223999,5.112999c1.324997,0 2.544006,-0.213001 3.561996,-0.688l-0.40799,-2.163002l-0.073013,0.024002c-0.855988,0.279999 -1.672989,0.402 -2.646988,0.402c-1.195007,0 -2.507004,-0.462002 -2.652008,-1.750999l6.214005,-0.054001c0.018005,-0.094002 0.099991,-0.59 0.099991,-1.229c0.001007,-2.422001 -1.147995,-5.01 -4.373993,-5.01zm-1.959,4.051001c0.091003,-0.728001 0.554993,-1.872 1.781006,-1.872c1.465988,0 1.620987,1.438002 1.632996,1.872l-3.414001,0z" fill="#555655"/>
   <path id="svg_12" d="m241.384003,29.511999c-0.973007,0 -2.177002,0.646 -2.621994,2.110001l-0.166,-1.887001l-2.660004,0l0.003006,0.07c0.041992,0.897001 0.078995,1.822001 0.078995,3.26l0,6.713001l3.138,0l0,-5.091999c0,-0.246002 0.020996,-0.484001 0.05899,-0.674004c0.194,-0.945 0.938004,-1.507999 1.989014,-1.507999c0.334,0 0.590988,0.040001 0.79599,0.078003l0.081009,0.015999l-0.057007,-3.046001c-0.216995,-0.038998 -0.360001,-0.039999 -0.639999,-0.039999z" fill="#555655"/>
   <path id="svg_13" d="m245.098999,25.419001c-0.485992,0 -0.917999,0.167 -1.214996,0.472c-0.28801,0.295 -0.442001,0.705999 -0.432999,1.153c-0.009003,0.436001 0.144989,0.839001 0.43399,1.135c0.299011,0.305 0.721008,0.475 1.193008,0.475c0.97699,0 1.686996,-0.677 1.686996,-1.610001c-0.020004,-0.957001 -0.703995,-1.625 -1.666,-1.625z" fill="#555655"/>
   <rect id="svg_14" height="10.043" width="3.138" fill="#555655" y="29.734" x="243.529"/>
   <path id="svg_15" d="m255.880997,37.137001c-0.498993,0.200001 -1.054001,0.297001 -1.692001,0.297001c-1.567993,0 -2.580002,-1.063 -2.580002,-2.709c-0.011002,-0.807003 0.25,-1.521 0.73201,-2.007999c0.450989,-0.458 1.069,-0.699001 1.787994,-0.699001c0.666,0 1.220001,0.099998 1.651001,0.297001l0.076004,0.032997l0.451004,-2.446999c-0.636017,-0.243 -1.501007,-0.389 -2.31601,-0.389c-3.867996,0 -5.600006,2.681 -5.600006,5.337002c0,3.118 2.034012,5.132 5.182999,5.132c1.045013,0 2.113007,-0.178001 2.757004,-0.524002l-0.369995,-2.352001l-0.080002,0.032001z" fill="#555655"/>
   <path id="svg_16" d="m266.132996,37.299l0,-3.445c0,-1.979 -0.75,-4.342001 -4.315002,-4.342001c-2.093994,0 -3.428986,0.674002 -3.820007,0.957001l0.57901,2.073l0.075989,-0.049c0.572021,-0.367001 1.608002,-0.739 2.631012,-0.739c1.471008,0 1.690002,0.758001 1.690002,1.209002l-0.018005,0.074997c-3.59201,0 -5.652985,1.406002 -5.652985,3.856003c0,1.506001 1.118988,3.105999 3.189972,3.105999c1.178009,0 2.179016,-0.439999 2.76001,-1.27l0.244995,1.047001l2.783997,0l-0.013,-0.078999c-0.087982,-0.491001 -0.135986,-1.344002 -0.135986,-2.399002zm-3.05899,-1.195999c0,0.181 -0.020996,0.357002 -0.056,0.507999c-0.203003,0.639999 -0.817993,1.087002 -1.497009,1.087002c-0.703003,0 -1.119995,-0.413002 -1.119995,-1.107002c0,-0.991997 0.882996,-1.494999 2.625,-1.494999l0.048004,0l0,1.007z" fill="#555655"/>
   <rect id="svg_17" height="13.792" width="3.159" fill="#555655" y="25.986" x="271.527"/>
   <path id="svg_18" d="m282.627014,29.511999c-1.481995,0 -2.528015,0.818001 -2.960999,1.618999c-0.002991,0.006001 -0.01001,0.014 -0.015015,0.021l-0.202972,-1.417l-2.679016,0l0.002991,0.07c0.038025,0.861 0.080017,1.908001 0.080017,3.159002l0,6.813999l3.135986,0l0,-5.780003c0,-0.301998 0.044006,-0.585999 0.115021,-0.75c0.09198,-0.258999 0.463989,-1.108997 1.457977,-1.108997c1.203003,0 1.456024,1.131001 1.456024,2.082001l0,5.557999l3.135986,0l0,-5.944c0,-2.707998 -1.318024,-4.323 -3.526001,-4.323z" fill="#555655"/>
   <path id="svg_19" d="m295.036011,37.137001c-0.498993,0.200001 -1.053009,0.297001 -1.691986,0.297001c-1.568024,0 -2.581024,-1.063 -2.581024,-2.709c-0.009003,-0.807003 0.25,-1.521 0.731018,-2.007999c0.453003,-0.458 1.070984,-0.699001 1.789001,-0.699001c0.664001,0 1.220001,0.099998 1.651978,0.297001l0.077026,0.032997l0.448975,-2.446999c-0.636993,-0.243 -1.500977,-0.389 -2.315002,-0.389c-3.870972,0 -5.60199,2.681 -5.60199,5.337002c0,3.118 2.037018,5.132 5.188019,5.132c1.043976,0 2.109985,-0.178001 2.752991,-0.524002l-0.372009,-2.352001l-0.076996,0.032001z" fill="#555655"/>
   <path id="svg_20" d="m298.174011,36.117001c-1.084991,0 -1.845001,0.804001 -1.845001,1.952999c0,1.118999 0.768005,1.931 1.824005,1.931c1.087006,0 1.846008,-0.792999 1.846008,-1.931c0.000977,-1.148998 -0.750031,-1.952999 -1.825012,-1.952999z" fill="#555655"/>
  </g>
 </g>
</svg>