<?xml version="1.0"?>
<svg width="200" height="80" xmlns="http://www.w3.org/2000/svg" xmlns:svg="http://www.w3.org/2000/svg">
 <g>
  <title>Layer 1</title>
  <g id="svg_1">
   <path id="svg_2" d="m128.097,0l-2.896004,10.139l22.914009,0l0,-0.001l0.018997,0l-8.307007,29.045999l0,0.002003l-2.853989,10.079998l16.038986,0c3.910004,0 8.25,-4.128998 9.532013,-7.994999c0.036987,-0.112 0.080994,-0.223999 0.112,-0.338001c0.03299,-0.113998 0.052994,-0.225998 0.079987,-0.338997l0.401001,-1.408001l0,-0.002003l8.307007,-29.044998l25.647003,0l2.897003,-10.139l-71.891006,0z" fill="#DD4D50"/>
   <path id="svg_3" d="m87.375999,0l-0.978996,0l-1.115005,0l-23.315998,0l-27.828999,0l-12.437,0c-4.821001,0 -9.828001,3.64 -11.692,8.321c-0.139,0.348 -0.265,0.702 -0.367001,1.061c-0.103,0.36 -0.177999,0.713 -0.238999,1.062l-9.143,32.107998c-1.06,3.706001 1.089,6.714001 4.796,6.714001l2.675,0l12.366001,0l27.829998,0l18.123005,0c4.020996,0 8.491997,-4.307999 9.642998,-8.329998l0,-0.003002c0,-0.000999 0.000999,-0.000999 0.000999,-0.002998l0.498001,-1.743999l2.924995,-10.248001l2.439003,-8.549l-2.095001,0l-23.314999,0l-15.182999,0l-2.439003,8.549l24.884003,0l-13.652,10.249001l-24.329,0c-1.325001,-0.042 -2.094,-1.102001 -1.778,-2.432999l6.901999,-24.179002c0.431002,-1.308 1.760002,-2.352 3.083,-2.436l25.438999,0l23.312004,0l2.096001,0l2.865997,-10.041l0.029999,-0.098z" fill="#DD4D50"/>
   <path id="svg_4" d="m97.742996,0.1l-2.865997,10.04l11.239998,0.064l-14.164993,10.185999l-5.365005,18.797001l-2.853996,10.079998l15.699997,0c0.119003,0.006001 0.233002,0.019001 0.355003,0.019001c0.120995,0 0.243996,-0.013 0.364998,-0.019001c3.656998,-0.175999 7.375,-2.966 8.75,-6.521c0.095001,-0.245998 0.458,-1.542 0.528999,-1.792999c0.070999,-0.252998 0.131004,-0.501999 0.177002,-0.747997l0.289001,-1.018002l8.292,-29.047l2.898994,-10.14l-23.316994,0l-0.029007,0.1z" fill="#DD4D50"/>
  </g>
  <g id="svg_5">
   <path id="svg_6" d="m15.761,73.010002l2.575001,0l0.045,3.419998c-0.295,0.152 -0.992001,0.246002 -1.818001,0.246002c-3.139,0 -5.165999,-2.170006 -5.165999,-5.527c0,-3.415001 2.033,-5.453003 5.437999,-5.453003c1.960001,0 3.089001,0.390999 3.854,0.729004l0.091002,0.041l0.772999,-3.291004c-0.821999,-0.409 -2.480999,-0.848 -4.668999,-0.848c-5.818001,0 -9.594001,3.542004 -9.617001,9.021999c-0.024,2.556999 0.819,4.788002 2.377,6.281998c1.584,1.571007 3.822,2.336006 6.844001,2.336006c2.082998,0 4.258999,-0.502007 5.654999,-1.051003l0,-9.096001l-6.382,0l0,3.190002z" fill="#555655"/>
   <rect id="svg_7" height="17.283" width="3.956" fill="#555655" y="62.506" x="26.09"/>
   <polygon id="svg_8" points="33.051,65.923 37.532,65.923 37.532,79.79 41.489,79.79 41.489,65.923 46.045,65.923    46.045,62.506 33.051,62.506  " fill="#555655"/>
   <path id="svg_9" d="m56.784,62.567001l-5.132999,17.223l4.105,-0.062004l1.107998,-4.329994l4.698002,-0.060005l1.368,4.452003l4.172997,0l-5.287998,-17.283001l-5.030998,0.060001zm0.736,9.764999l0.960999,-3.523003c0.164001,-0.597 0.319,-1.301994 0.471001,-1.990997c0.081001,-0.371002 0.160999,-0.736 0.241001,-1.077003l0.071999,0.296005c0.219002,0.905998 0.466999,1.927994 0.714001,2.771996l1.007999,3.523003l-3.466999,0z" fill="#555655"/>
   <path id="svg_10" d="m82.838997,66.924004c-0.890999,0 -1.657997,0.202995 -2.348,0.621994c-0.601997,0.375999 -1.146996,0.900002 -1.481995,1.532005c-0.001999,0.001999 -0.004005,0.003998 -0.006004,0.005997c-0.542999,-1.351997 -1.811996,-2.159996 -3.395996,-2.159996c-1.378006,0 -2.478004,0.524994 -3.269005,1.523994c-0.151001,0.174004 -0.282997,0.346001 -0.387001,0.502998l-0.255997,-1.747993l-3.258003,0l0.004005,0.087997c0.048996,1.091003 0.099998,2.414001 0.099998,3.957001l0,8.541l3.831001,0l0,-7.32c0,-0.250999 0.015999,-0.622002 0.144997,-0.938004c0.228004,-0.646996 0.788002,-1.340996 1.679001,-1.340996c1.436005,0 1.650002,1.602997 1.650002,2.558998l0,7.041l3.831001,0l0,-7.348c0,-0.275002 0.044998,-0.679001 0.144997,-0.961998c0.209999,-0.624001 0.753998,-1.290001 1.653999,-1.290001c1.126999,0 1.699005,0.929001 1.699005,2.759995l0,6.840004l3.832001,0l0,-7.397003c0.000999,-3.424995 -1.558006,-5.468994 -4.168007,-5.468994z" fill="#555655"/>
   <path id="svg_11" d="m94.507004,66.924004c-4.259003,0 -6.199005,3.478996 -6.199005,6.711998c0,4.012001 2.446999,6.407997 6.547005,6.407997c1.660995,0 3.187996,-0.266998 4.464996,-0.862l-0.514,-2.709999l-0.091003,0.029999c-1.072998,0.348999 -2.095993,0.503998 -3.315994,0.503998c-1.499001,0 -3.143005,-0.578995 -3.324005,-2.195l7.789001,-0.068001c0.021004,-0.114998 0.125,-0.737999 0.125,-1.537994c-0.000999,-3.037003 -1.439995,-6.280998 -5.481995,-6.280998zm-2.456001,5.076996c0.113998,-0.912003 0.695999,-2.345001 2.232994,-2.345001c1.837006,0 2.029007,1.801003 2.045006,2.345001l-4.278,0z" fill="#555655"/>
   <path id="svg_12" d="m108.797997,66.924004c-1.218994,0 -2.725998,0.810997 -3.283997,2.643997l-0.207001,-2.363998l-3.332001,0l0.002998,0.087997c0.054001,1.124001 0.101006,2.281998 0.101006,4.085999l0,8.412003l3.931999,0l0,-6.383003c0,-0.306999 0.026001,-0.605995 0.072998,-0.843994c0.243004,-1.184006 1.176003,-1.889 2.491997,-1.889c0.421005,0 0.741005,0.049995 0.999001,0.098l0.100006,0.019997l-0.069,-3.816002c-0.277,-0.049995 -0.456001,-0.051994 -0.808006,-0.051994z" fill="#555655"/>
   <path id="svg_13" d="m113.454002,61.793999c-0.607002,0 -1.149002,0.210003 -1.522003,0.593002c-0.362,0.368999 -0.554001,0.883999 -0.542,1.444c-0.012001,0.546997 0.18,1.051003 0.542999,1.421997c0.374001,0.383003 0.905998,0.595001 1.496002,0.595001c1.224998,0 2.113998,-0.848 2.113998,-2.016998c-0.024002,-1.199001 -0.884003,-2.037003 -2.088997,-2.037003z" fill="#555655"/>
   <rect id="svg_14" height="12.586" width="3.932" fill="#555655" y="67.204" x="111.488"/>
   <path id="svg_15" d="m126.968002,76.478996c-0.625999,0.252007 -1.32,0.374001 -2.121002,0.374001c-1.966003,0 -3.234001,-1.333 -3.234001,-3.395996c-0.013,-1.012001 0.313004,-1.904999 0.917,-2.515999c0.567001,-0.575005 1.342003,-0.877998 2.242004,-0.877998c0.833,0 1.528999,0.125 2.069,0.371994l0.095993,0.042999l0.563004,-3.065994c-0.796997,-0.305 -1.880997,-0.487999 -2.901001,-0.487999c-4.848999,0 -7.018997,3.358994 -7.018997,6.687996c0,3.906998 2.549995,6.432999 6.497002,6.432999c1.309998,0 2.645996,-0.223 3.452995,-0.655998l-0.464996,-2.947998l-0.097,0.037994z" fill="#555655"/>
   <path id="svg_16" d="m139.813004,76.682999l0,-4.316002c0,-2.481995 -0.938004,-5.441994 -5.406006,-5.441994c-2.625992,0 -4.298004,0.844994 -4.787003,1.197998l0.725006,2.599998l0.095993,-0.061996c0.71701,-0.461006 2.014008,-0.927002 3.297012,-0.927002c1.843994,0 2.118988,0.948997 2.118988,1.514999l-0.021988,0.095001c-4.502014,0 -7.085007,1.762001 -7.085007,4.832001c0,1.887001 1.401993,3.892998 3.998993,3.892998c1.475006,0 2.729004,-0.552002 3.458008,-1.592003l0.306,1.313004l3.490997,0l-0.018005,-0.098999c-0.112,-0.617004 -0.172989,-1.686005 -0.172989,-3.008003zm-3.832001,-1.499001c0,0.227005 -0.024002,0.449005 -0.070007,0.638c-0.253998,0.802002 -1.024994,1.362 -1.875,1.362c-0.87999,0 -1.403992,-0.519997 -1.403992,-1.389999c0,-1.241997 1.106995,-1.873001 3.289001,-1.873001l0.060989,0l0,1.263l-0.000992,0z" fill="#555655"/>
   <rect id="svg_17" height="17.283" width="3.957" fill="#555655" y="62.506" x="146.575"/>
   <path id="svg_18" d="m160.485001,66.924004c-1.856003,0 -3.167999,1.023994 -3.712006,2.028c-0.003998,0.008995 -0.011993,0.017998 -0.016998,0.025993l-0.255997,-1.774994l-3.358002,0l0.003998,0.087997c0.050003,1.078003 0.100006,2.391998 0.100006,3.957001l0,8.541l3.932999,0l0,-7.244003c0,-0.376999 0.054001,-0.734001 0.143997,-0.938995c0.113998,-0.325005 0.581009,-1.389999 1.826996,-1.389999c1.507004,0 1.823013,1.417999 1.823013,2.607994l0,6.965004l3.932999,0l0,-7.447998c-0.001007,-3.391006 -1.653,-5.417 -4.421005,-5.417z" fill="#555655"/>
   <path id="svg_19" d="m176.035995,76.478996c-0.625992,0.252007 -1.319992,0.374001 -2.121002,0.374001c-1.965988,0 -3.233994,-1.333 -3.233994,-3.395996c-0.013,-1.012001 0.313004,-1.904999 0.917007,-2.515999c0.566986,-0.575005 1.341995,-0.877998 2.241989,-0.877998c0.833008,0 1.529007,0.125 2.069,0.371994l0.096008,0.042999l0.562988,-3.065994c-0.796997,-0.305 -1.880997,-0.487999 -2.900986,-0.487999c-4.849014,0 -7.018005,3.358994 -7.018005,6.687996c0,3.906998 2.550995,6.432999 6.498001,6.432999c1.30899,0 2.645004,-0.223 3.451004,-0.655998l-0.465012,-2.947998l-0.097,0.037994z" fill="#555655"/>
   <path id="svg_20" d="m179.968002,75.203003c-1.360001,0 -2.311996,1.005997 -2.311996,2.445999c0,1.402 0.960999,2.418999 2.286987,2.418999c1.360001,0 2.312012,-0.994003 2.312012,-2.418999c0,-1.441002 -0.94101,-2.445999 -2.287003,-2.445999z" fill="#555655"/>
  </g>
 </g>
</svg>