<?xml version="1.0" encoding="UTF-8" standalone="no"?>
<svg
   xmlns:dc="http://purl.org/dc/elements/1.1/"
   xmlns:cc="http://creativecommons.org/ns#"
   xmlns:rdf="http://www.w3.org/1999/02/22-rdf-syntax-ns#"
   xmlns:svg="http://www.w3.org/2000/svg"
   xmlns="http://www.w3.org/2000/svg"
   viewBox="0 0 533.33331 73.333336"
   height="73.333336"
   width="533.33331"
   xml:space="preserve"
   id="svg2"
   version="1.1"><metadata
     id="metadata8"><rdf:RDF><cc:Work
         rdf:about=""><dc:format>image/svg+xml</dc:format><dc:type
           rdf:resource="http://purl.org/dc/dcmitype/StillImage" /></cc:Work></rdf:RDF></metadata><defs
     id="defs6"><clipPath
       id="clipPath26"
       clipPathUnits="userSpaceOnUse"><path
         id="path24"
         d="M 0,55 H 400 V 0 H 0 Z" /></clipPath></defs><g
     transform="matrix(1.3333333,0,0,-1.3333333,0,73.333333)"
     id="g10"><g
       transform="translate(153.7207,47.2334)"
       id="g12"><path
         id="path14"
         style="fill:#233366;fill-opacity:1;fill-rule:nonzero;stroke:none"
         d="M 0,0 V -15.045 H -17.053 V 0 h -9.398 v -39.479 h 9.398 v 15.873 H 0 V -39.479 H 9.398 V 0 Z" /></g><g
       transform="translate(197.5527,47.2334)"
       id="g16"><path
         id="path18"
         style="fill:#233366;fill-opacity:1;fill-rule:nonzero;stroke:none"
         d="M 0,0 -9.831,-15.635 -19.648,0 h -11.089 l 16.224,-25.805 v -13.674 h 9.389 v 13.674 L 11.102,0 Z" /></g><g
       id="g20"><g
         clip-path="url(#clipPath26)"
         id="g22"><g
           transform="translate(238.8662,47.2334)"
           id="g28"><path
             id="path30"
             style="fill:#233366;fill-opacity:1;fill-rule:nonzero;stroke:none"
             d="m 0,0 v -28.934 c 0,-1.1 -0.826,-1.985 -1.995,-1.985 H -17.05 V 0 h -9.4 V -39.479 H 1.317 c 2.47,0 4.456,0.739 5.907,2.178 1.437,1.45 2.163,3.435 2.163,5.895 L 9.387,0 Z" /></g><g
           transform="translate(284.7285,47.2334)"
           id="g32"><path
             id="path34"
             style="fill:#233366;fill-opacity:1;fill-rule:nonzero;stroke:none"
             d="m 0,0 h -27.768 v -39.479 h 9.389 v 30.93 H -3.3 c 1.213,0 1.988,-0.953 1.988,-1.973 v -28.957 h 9.385 v 31.405 c 0,2.473 -0.739,4.457 -2.167,5.897 C 4.443,-0.726 2.47,0 0,0" /></g><g
           transform="translate(327.9473,36.6431)"
           id="g36"><path
             id="path38"
             style="fill:#233366;fill-opacity:1;fill-rule:nonzero;stroke:none"
             d="m 0,0 v -18.288 c 0,-1.066 -0.771,-2.041 -1.995,-2.041 H -17.062 V 2.042 H -2.061 C -0.826,2.042 0,1.18 0,0 M 1.325,10.59 H -26.438 V -28.888 H 1.325 c 2.474,0 4.448,0.736 5.886,2.177 1.454,1.451 2.175,3.436 2.175,5.896 V 2.517 C 9.386,4.99 8.665,6.973 7.211,8.413 5.773,9.864 3.786,10.59 1.325,10.59" /></g><g
           transform="translate(372.0752,38.6846)"
           id="g40"><path
             id="path42"
             style="fill:#233366;fill-opacity:1;fill-rule:nonzero;stroke:none"
             d="m 0,0 v -10.169 h -17.062 v 8.162 c 0,0.974 0.756,2.007 2.006,2.007 z m -18.367,8.549 c -2.462,0 -4.456,-0.726 -5.896,-2.177 -1.451,-1.451 -2.166,-3.435 -2.166,-5.897 V -30.93 h 9.367 v 12.212 H 0 V -30.93 H 9.387 V 8.549 Z" /></g><path
           id="path44"
           style="fill:#233366;fill-opacity:1;fill-rule:nonzero;stroke:none"
           d="M 390.599,7.755 H 400 v 39.479 h -9.401 z" /><g
           transform="translate(34.0132,48.6943)"
           id="g46"><path
             id="path48"
             style="fill:#233366;fill-opacity:1;fill-rule:nonzero;stroke:none"
             d="M 0,0 C 1.122,0.215 1.861,0.215 2.132,-0.065 2.291,-0.246 2.335,-0.541 2.124,-0.916 2.01,-1.109 1.886,-1.29 1.658,-1.552 c -9.49,-11.201 -16.722,-27.699 -18.786,-32.469 -0.148,-0.332 -0.306,-0.66 -0.432,-0.875 -0.181,-0.329 -0.441,-0.611 -0.895,-0.635 -0.249,-0.026 -0.601,0.05 -1.122,0.362 -6.303,3.877 -10.046,8.73 -10.046,13.981 0,9.477 12.189,17.629 29.626,21.189 M 9.74,-7.13 c 0.896,2.073 2.437,6.506 5.974,8.263 1.078,0.535 2.404,0.795 3.584,0.828 0.272,0.009 0.464,0 0.533,0 9.92,0 19.137,-1.371 26.87,-3.729 0.058,-0.024 0.237,-0.091 0.296,-0.114 0.713,-0.237 1.076,-0.566 1.076,-0.974 0,-0.352 -0.193,-0.613 -0.443,-0.863 -0.113,-0.114 -0.272,-0.251 -0.488,-0.43 -1.779,-1.497 -7.152,-5.375 -17.267,-9.252 -3.559,-1.36 -7.993,-3.038 -12.63,-4.025 C 14.514,-18.004 4.4,-19.547 9.74,-7.132 M 56.927,-7.48 c 0.192,0.328 0.443,0.61 0.907,0.634 0.249,0.025 0.59,-0.033 1.112,-0.362 6.303,-3.878 10.045,-8.731 10.045,-13.98 0,-9.479 -12.188,-17.629 -29.626,-21.189 -1.111,-0.229 -1.86,-0.215 -2.108,0.065 -0.182,0.169 -0.227,0.476 0,0.85 0.101,0.192 0.226,0.361 0.464,0.647 9.49,11.19 16.722,27.698 18.775,32.46 0.16,0.329 0.307,0.657 0.433,0.873 M 29.796,-35.204 c -0.896,-2.074 -2.438,-6.507 -5.975,-8.276 -1.078,-0.533 -2.404,-0.782 -3.582,-0.826 h -0.545 c -9.91,0 -19.139,1.381 -26.86,3.728 -0.057,0.026 -0.237,0.092 -0.294,0.116 -0.714,0.238 -1.077,0.566 -1.077,0.973 0,0.353 0.192,0.625 0.442,0.874 0.113,0.102 0.272,0.238 0.488,0.431 1.791,1.483 7.153,5.374 17.267,9.252 3.55,1.349 7.993,3.04 12.641,4.024 2.721,0.568 12.835,2.12 7.495,-10.296 m -10.113,-13.49 c 29.658,0 53.706,12.312 53.706,27.494 0,15.193 -24.048,27.506 -53.706,27.506 -29.648,0 -53.696,-12.313 -53.696,-27.506 0,-15.182 24.048,-27.494 53.696,-27.494" /></g></g></g></g></svg>