<?xml version="1.0" encoding="UTF-8" standalone="no"?>
<svg
   xmlns:dc="http://purl.org/dc/elements/1.1/"
   xmlns:cc="http://creativecommons.org/ns#"
   xmlns:rdf="http://www.w3.org/1999/02/22-rdf-syntax-ns#"
   xmlns:svg="http://www.w3.org/2000/svg"
   xmlns="http://www.w3.org/2000/svg"
   viewBox="0 0 533.33331 333.33334"
   height="333.33334"
   width="533.33331"
   xml:space="preserve"
   id="svg2"
   version="1.1"><metadata
     id="metadata8"><rdf:RDF><cc:Work
         rdf:about=""><dc:format>image/svg+xml</dc:format><dc:type
           rdf:resource="http://purl.org/dc/dcmitype/StillImage" /></cc:Work></rdf:RDF></metadata><defs
     id="defs6"><clipPath
       id="clipPath18"
       clipPathUnits="userSpaceOnUse"><path
         id="path16"
         d="M 0,250 H 400 V 0 H 0 Z" /></clipPath></defs><g
     transform="matrix(1.3333333,0,0,-1.3333333,0,333.33333)"
     id="g10"><g
       id="g12"><g
         clip-path="url(#clipPath18)"
         id="g14"><g
           transform="translate(143.7358,231.3359)"
           id="g20"><path
             id="path22"
             style="fill:#002e6b;fill-opacity:1;fill-rule:nonzero;stroke:none"
             d="M 0,0 C 3.322,0.629 5.506,0.629 6.311,-0.201 6.783,-0.729 6.909,-1.61 6.286,-2.718 5.953,-3.284 5.582,-3.825 4.908,-4.593 c -28.09,-33.162 -49.496,-81.99 -55.606,-96.112 -0.434,-0.98 -0.907,-1.949 -1.278,-2.592 -0.542,-0.968 -1.307,-1.811 -2.648,-1.875 -0.737,-0.075 -1.782,0.139 -3.323,1.07 -18.657,11.478 -29.731,25.837 -29.731,41.379 0,28.052 36.073,52.191 87.691,62.723 m 28.82,-21.11 c 2.648,6.133 7.21,19.26 17.68,24.458 3.19,1.586 7.116,2.353 10.608,2.454 0.806,0.025 1.374,0 1.575,0 29.365,0 56.65,-4.066 79.536,-11.037 0.175,-0.076 0.703,-0.272 0.874,-0.339 2.114,-0.705 3.189,-1.674 3.189,-2.883 0,-1.045 -0.572,-1.812 -1.308,-2.554 -0.34,-0.34 -0.806,-0.744 -1.447,-1.272 -5.268,-4.429 -21.174,-15.906 -51.107,-27.384 -10.539,-4.027 -23.659,-8.998 -37.39,-11.917 -8.085,-1.712 -38.018,-6.28 -22.21,30.468 m 139.666,-1.033 c 0.572,0.975 1.314,1.813 2.692,1.881 0.728,0.071 1.743,-0.093 3.285,-1.076 18.662,-11.476 29.738,-25.837 29.738,-41.379 0,-28.05 -36.082,-52.175 -87.691,-62.722 -3.299,-0.667 -5.514,-0.628 -6.243,0.202 -0.541,0.502 -0.672,1.41 0,2.515 0.303,0.567 0.668,1.071 1.373,1.914 28.089,33.123 49.496,81.983 55.573,96.079 0.474,0.975 0.906,1.944 1.278,2.586 m -80.31,-82.053 c -2.656,-6.141 -7.212,-19.268 -17.682,-24.502 -3.196,-1.574 -7.123,-2.316 -10.61,-2.442 h -1.61 c -29.334,0 -56.65,4.09 -79.503,11.036 -0.172,0.076 -0.701,0.265 -0.875,0.341 -2.115,0.705 -3.185,1.672 -3.185,2.882 0,1.044 0.566,1.85 1.309,2.579 0.334,0.302 0.806,0.704 1.448,1.284 5.297,4.393 21.167,15.908 51.106,27.385 10.508,3.99 23.659,8.997 37.415,11.906 8.055,1.684 37.993,6.278 22.187,-30.469 m -29.94,-39.931 c 87.793,0 158.973,36.445 158.973,81.372 0,44.979 -71.18,81.425 -158.973,81.425 -87.753,0 -158.933,-36.446 -158.933,-81.425 0,-44.927 71.18,-81.372 158.933,-81.372" /></g><g
           transform="translate(38.7954,57.8994)"
           id="g24"><path
             id="path26"
             style="fill:#002e6b;fill-opacity:1;fill-rule:nonzero;stroke:none"
             d="M 0,0 V -22.068 H -25.01 V 0 h -13.785 v -57.899 h 13.785 v 23.278 H 0 V -57.899 H 13.784 V 0 Z" /></g><g
           transform="translate(103.0811,57.8994)"
           id="g28"><path
             id="path30"
             style="fill:#002e6b;fill-opacity:1;fill-rule:nonzero;stroke:none"
             d="M 0,0 -14.417,-22.93 -28.817,0 H -45.08 l 23.796,-37.846 v -20.053 h 13.768 v 20.053 L 16.282,0 Z" /></g><g
           transform="translate(163.6729,57.8994)"
           id="g32"><path
             id="path34"
             style="fill:#002e6b;fill-opacity:1;fill-rule:nonzero;stroke:none"
             d="m 0,0 v -42.436 c 0,-1.614 -1.209,-2.911 -2.924,-2.911 H -25.005 V 0 H -38.792 V -57.899 H 1.933 c 3.623,0 6.535,1.078 8.662,3.194 2.111,2.126 3.174,5.037 3.174,8.642 V 0 Z" /></g><g
           transform="translate(230.9375,57.8994)"
           id="g36"><path
             id="path38"
             style="fill:#002e6b;fill-opacity:1;fill-rule:nonzero;stroke:none"
             d="m 0,0 h -40.726 v -57.899 h 13.769 v 45.361 h 22.118 c 1.777,0 2.912,-1.399 2.912,-2.895 v -42.466 h 13.769 v 46.059 c 0,3.626 -1.085,6.533 -3.18,8.648 C 6.516,-1.065 3.623,0 0,0" /></g><g
           transform="translate(294.3242,42.3662)"
           id="g40"><path
             id="path42"
             style="fill:#002e6b;fill-opacity:1;fill-rule:nonzero;stroke:none"
             d="m 0,0 v -26.821 c 0,-1.565 -1.129,-2.992 -2.925,-2.992 H -25.024 V 2.995 h 22 C -1.21,2.995 0,1.731 0,0 M 1.944,15.533 H -38.774 V -42.366 H 1.944 c 3.629,0 6.524,1.078 8.631,3.194 2.133,2.126 3.193,5.037 3.193,8.642 V 3.693 c 0,3.626 -1.06,6.534 -3.193,8.648 -2.107,2.127 -5.02,3.192 -8.631,3.192" /></g><g
           transform="translate(359.0439,45.3613)"
           id="g44"><path
             id="path46"
             style="fill:#002e6b;fill-opacity:1;fill-rule:nonzero;stroke:none"
             d="m 0,0 v -14.917 h -25.024 v 11.973 c 0,1.429 1.109,2.944 2.943,2.944 z m -26.939,12.538 c -3.61,0 -6.535,-1.065 -8.648,-3.192 -2.127,-2.129 -3.174,-5.039 -3.174,-8.648 v -46.059 h 13.737 v 17.909 H 0 v -17.909 h 13.769 v 57.899 z" /></g><path
           id="path48"
           style="fill:#002e6b;fill-opacity:1;fill-rule:nonzero;stroke:none"
           d="M 386.213,0 H 400 v 57.899 h -13.787 z" /></g></g></g></svg>