<?xml version="1.0" standalone="no"?>
<!DOCTYPE svg PUBLIC "-//W3C//DTD SVG 20010904//EN"
 "http://www.w3.org/TR/2001/REC-SVG-20010904/DTD/svg10.dtd">
<svg version="1.0" xmlns="http://www.w3.org/2000/svg"
 width="640.000000pt" height="640.000000pt" viewBox="0 0 640.000000 640.000000"
 preserveAspectRatio="xMidYMid meet">
<metadata>
Created by potrace 1.11, written by Peter Selinger 2001-2013
</metadata>
<g transform="translate(0.000000,640.000000) scale(0.100000,-0.100000)"
fill="#000000" stroke="none">
<path d="M893 4325 c-59 -18 -122 -57 -165 -102 -37 -38 -98 -143 -98 -168 0
-8 -56 -209 -124 -447 -160 -562 -152 -528 -137 -577 7 -26 25 -50 48 -68 l36
-28 921 0 921 0 43 23 c57 30 125 99 153 154 20 39 189 607 189 636 0 10 -119
12 -577 10 l-577 -3 -28 -95 c-15 -52 -30 -107 -33 -122 l-7 -28 348 -2 347
-3 -191 -142 -190 -143 -344 0 c-371 0 -388 2 -388 53 0 12 45 179 100 371 80
284 104 354 125 375 l25 26 740 3 c690 2 739 4 744 20 10 34 76 266 76 269 0
2 -431 3 -957 2 -763 0 -967 -3 -1000 -14z"/>
<path d="M3103 4198 l-40 -143 156 -5 156 -5 -193 -139 c-106 -76 -196 -144
-200 -150 -4 -6 -59 -192 -123 -414 -86 -301 -112 -405 -103 -409 7 -3 125 -3
261 -1 l248 3 54 30 c29 16 71 49 92 74 47 53 16 -44 304 966 48 165 88 308
91 318 5 16 -15 17 -329 17 l-334 0 -40 -142z"/>
<path d="M4004 4326 c-3 -8 -22 -73 -43 -145 l-38 -131 324 0 c183 0 323 -4
323 -9 0 -5 -67 -244 -149 -532 -82 -288 -153 -537 -157 -552 l-7 -29 254 4
c225 3 258 5 292 22 59 29 132 100 161 158 15 29 76 226 136 438 60 212 117
411 126 442 l17 58 366 2 365 3 13 45 c22 74 55 194 60 218 l5 22 -1021 0
c-865 0 -1022 -2 -1027 -14z"/>
<path d="M3547 2562 c-10 -10 -17 -28 -17 -40 0 -27 33 -62 58 -62 31 0 62 29
62 59 0 54 -68 82 -103 43z"/>
<path d="M771 2559 c-123 -24 -201 -122 -201 -253 0 -99 43 -176 123 -219 35
-18 58 -22 137 -22 53 0 111 6 133 13 l37 14 0 129 0 129 -95 0 -95 0 0 -45
c0 -45 0 -45 35 -45 34 0 35 -1 35 -40 0 -22 0 -43 0 -47 1 -16 -75 -14 -112
3 -68 31 -99 138 -60 214 32 63 114 89 213 66 l36 -8 11 44 c6 23 8 46 4 50
-9 9 -107 28 -136 27 -11 -1 -41 -5 -65 -10z"/>
<path d="M1102 2313 l3 -248 58 -3 57 -3 0 251 0 250 -60 0 -60 0 2 -247z"/>
<path d="M1300 2510 l0 -50 65 0 65 0 0 -200 0 -201 58 3 57 3 3 198 2 197 65
0 65 0 0 50 0 50 -190 0 -190 0 0 -50z"/>
<path d="M1977 2553 c-2 -5 -19 -57 -37 -118 -17 -60 -49 -166 -71 -235 -21
-69 -35 -128 -31 -132 4 -3 32 -4 62 0 l54 7 14 58 14 57 67 0 67 0 19 -62 20
-63 58 -3 c42 -2 57 0 57 10 0 7 -33 120 -72 250 l-73 238 -72 0 c-39 0 -74
-3 -76 -7z m93 -181 c11 -40 20 -76 20 -82 0 -5 -20 -10 -44 -10 l-43 0 21 84
c12 46 22 83 24 81 1 -1 11 -34 22 -73z"/>
<path d="M4532 2313 l3 -248 55 0 55 0 3 248 2 247 -60 0 -60 0 2 -247z"/>
<path d="M2470 2429 c-13 -6 -32 -17 -41 -25 -15 -13 -17 -13 -22 6 -4 16 -13
20 -51 20 l-46 0 2 -182 3 -183 55 0 55 0 3 128 c3 127 3 128 28 139 23 11 29
9 45 -11 16 -20 19 -41 19 -142 l0 -119 55 0 55 0 0 118 c0 125 11 162 50 162
39 0 50 -37 50 -162 l0 -118 55 0 55 0 0 138 c-1 158 -13 196 -70 225 -44 22
-95 15 -131 -19 -24 -23 -27 -24 -40 -8 -15 18 -70 44 -91 43 -7 0 -24 -5 -38
-10z"/>
<path d="M2996 2426 c-142 -52 -167 -248 -43 -340 34 -25 147 -34 202 -16 34
11 37 15 31 42 -3 17 -6 34 -6 39 0 4 -30 6 -67 3 -73 -5 -115 8 -121 39 -3
15 8 17 107 17 l111 0 0 48 c-1 127 -103 208 -214 168z m94 -95 c18 -35 12
-41 -45 -41 -41 0 -55 4 -55 14 0 43 80 64 100 27z"/>
<path d="M3423 2430 c-12 -5 -28 -18 -35 -30 -17 -27 -28 -25 -28 5 0 23 -3
25 -50 25 l-50 0 2 -182 3 -183 58 -3 57 -3 0 108 c0 128 11 153 65 153 43 0
47 8 39 70 -7 53 -15 58 -61 40z"/>
<path d="M3854 2431 c-52 -13 -98 -47 -123 -91 -31 -56 -27 -159 8 -208 32
-45 89 -72 153 -72 96 0 109 12 92 78 -6 21 -11 23 -44 17 -42 -7 -93 13 -104
40 -15 40 -6 96 20 122 22 22 32 25 74 21 l48 -5 6 40 c4 22 3 44 -1 48 -13
12 -95 18 -129 10z"/>
<path d="M4121 2429 c-60 -12 -76 -29 -64 -66 7 -19 16 -27 29 -25 90 14 111
14 129 -4 18 -19 18 -19 -11 -22 -93 -10 -154 -48 -174 -107 -15 -46 1 -98 40
-125 38 -27 108 -27 143 0 25 20 25 20 30 -1 5 -17 12 -20 53 -17 l48 3 -3
135 c-3 145 -11 175 -61 211 -31 22 -101 30 -159 18z m109 -218 c0 -49 -35
-80 -70 -61 -28 15 -26 58 3 70 39 16 67 12 67 -9z"/>
<path d="M4894 2433 c-12 -2 -30 -13 -40 -24 -22 -24 -34 -24 -34 1 0 17 -7
20 -50 20 l-50 0 2 -182 3 -183 55 0 55 0 3 120 c3 125 13 155 52 155 39 0 49
-30 52 -155 l3 -120 55 0 55 0 0 135 c0 146 -8 177 -55 211 -27 20 -72 30
-106 22z"/>
<path d="M5242 2429 c-57 -14 -117 -73 -133 -131 -9 -32 -9 -57 0 -97 19 -94
82 -141 189 -141 73 0 91 13 85 61 l-5 37 -53 -2 c-39 -1 -58 4 -74 18 -42 38
-35 132 11 157 11 6 40 9 66 8 l47 -3 6 39 c4 22 4 43 1 47 -13 12 -97 17
-140 7z"/>
<path d="M3532 2248 l3 -183 55 0 55 0 3 183 2 182 -60 0 -60 0 2 -182z"/>
<path d="M5439 2182 c-48 -40 -17 -122 47 -122 59 0 87 78 42 120 -27 25 -59
26 -89 2z"/>
</g>
</svg>
