<?xml version="1.0" encoding="UTF-8" standalone="no"?>
<svg
   xmlns:dc="http://purl.org/dc/elements/1.1/"
   xmlns:cc="http://creativecommons.org/ns#"
   xmlns:rdf="http://www.w3.org/1999/02/22-rdf-syntax-ns#"
   xmlns:svg="http://www.w3.org/2000/svg"
   xmlns="http://www.w3.org/2000/svg"
   viewBox="0 0 826.66669 426.66666"
   height="426.66666"
   width="826.66669"
   xml:space="preserve"
   id="svg2"
   version="1.1"><metadata
     id="metadata8"><rdf:RDF><cc:Work
         rdf:about=""><dc:format>image/svg+xml</dc:format><dc:type
           rdf:resource="http://purl.org/dc/dcmitype/StillImage" /></cc:Work></rdf:RDF></metadata><defs
     id="defs6"><linearGradient
       id="linearGradient30"
       spreadMethod="pad"
       gradientTransform="matrix(123.99229,0,0,123.99229,247.7959,160.00098)"
       gradientUnits="userSpaceOnUse"
       y2="0"
       x2="1"
       y1="0"
       x1="0"><stop
         id="stop24"
         offset="0"
         style="stop-opacity:1;stop-color:#660a01" /><stop
         id="stop26"
         offset="0"
         style="stop-opacity:1;stop-color:#660a01" /><stop
         id="stop28"
         offset="1"
         style="stop-opacity:1;stop-color:#440500" /></linearGradient><linearGradient
       id="linearGradient52"
       spreadMethod="pad"
       gradientTransform="matrix(122.57773,0,0,122.57773,246.70117,159.55566)"
       gradientUnits="userSpaceOnUse"
       y2="0"
       x2="1"
       y1="0"
       x1="0"><stop
         id="stop46"
         offset="0"
         style="stop-opacity:1;stop-color:#620c00" /><stop
         id="stop48"
         offset="0.521569"
         style="stop-opacity:1;stop-color:#ac0f0a" /><stop
         id="stop50"
         offset="1"
         style="stop-opacity:1;stop-color:#d89175" /></linearGradient><radialGradient
       id="radialGradient76"
       spreadMethod="pad"
       gradientTransform="matrix(308.91165,0,0,308.91162,310.4834,228.07422)"
       gradientUnits="userSpaceOnUse"
       r="1"
       cy="0"
       cx="0"
       fy="0"
       fx="0"><stop
         id="stop68"
         offset="0"
         style="stop-opacity:1;stop-color:#e20513" /><stop
         id="stop70"
         offset="0.501961"
         style="stop-opacity:1;stop-color:#bd0c0c" /><stop
         id="stop72"
         offset="0.619608"
         style="stop-opacity:1;stop-color:#ac0f0a" /><stop
         id="stop74"
         offset="1"
         style="stop-opacity:1;stop-color:#770f00" /></radialGradient><radialGradient
       id="radialGradient100"
       spreadMethod="pad"
       gradientTransform="matrix(308.72351,0,0,308.72348,310.67187,83.897461)"
       gradientUnits="userSpaceOnUse"
       r="1"
       cy="0"
       cx="0"
       fy="0"
       fx="0"><stop
         id="stop92"
         offset="0"
         style="stop-opacity:1;stop-color:#e20513" /><stop
         id="stop94"
         offset="0.509804"
         style="stop-opacity:1;stop-color:#bd0c0c" /><stop
         id="stop96"
         offset="0.619608"
         style="stop-opacity:1;stop-color:#ac0f0a" /><stop
         id="stop98"
         offset="1"
         style="stop-opacity:1;stop-color:#770f00" /></radialGradient><linearGradient
       id="linearGradient122"
       spreadMethod="pad"
       gradientTransform="matrix(106.56142,0,0,106.56142,257.03125,158.44238)"
       gradientUnits="userSpaceOnUse"
       y2="0"
       x2="1"
       y1="0"
       x1="0"><stop
         id="stop116"
         offset="0"
         style="stop-opacity:1;stop-color:#e0a790" /><stop
         id="stop118"
         offset="0"
         style="stop-opacity:1;stop-color:#e0a790" /><stop
         id="stop120"
         offset="1"
         style="stop-opacity:1;stop-color:#d89175" /></linearGradient><linearGradient
       id="linearGradient148"
       spreadMethod="pad"
       gradientTransform="matrix(106.56577,0,0,106.56577,257.20898,158.88574)"
       gradientUnits="userSpaceOnUse"
       y2="0"
       x2="1"
       y1="0"
       x1="0"><stop
         id="stop138"
         offset="0"
         style="stop-opacity:1;stop-color:#c86748" /><stop
         id="stop140"
         offset="0.141176"
         style="stop-opacity:1;stop-color:#ac0f0a" /><stop
         id="stop142"
         offset="0.501961"
         style="stop-opacity:1;stop-color:#620c00" /><stop
         id="stop144"
         offset="0.870588"
         style="stop-opacity:1;stop-color:#ac0f0a" /><stop
         id="stop146"
         offset="1"
         style="stop-opacity:1;stop-color:#c86748" /></linearGradient><clipPath
       id="clipPath158"
       clipPathUnits="userSpaceOnUse"><path
         id="path156"
         d="M 0,320 H 620 V 0 H 0 Z" /></clipPath></defs><g
     transform="matrix(1.3333333,0,0,-1.3333333,0,426.66667)"
     id="g10"><g
       id="g12"><g
         id="g14"><g
           id="g20"><g
             id="g22"><path
               id="path32"
               style="fill:url(#linearGradient30);stroke:none"
               d="M 309.778,319.355 C 138.821,319.355 0,248.382 0,160.45 v 0 C 0,72.514 138.821,1.545 309.778,1.545 v 0 -0.45 h 1.339 v 36.599 c -156.673,0 -283.445,54.464 -283.445,121.863 v 0 c 0,67.402 126.772,121.859 283.445,121.859 v 0 37.939 z m 1.339,-38.389 c 156.231,0 283.444,-54.451 283.444,-121.855 v 0 c 0,-67.402 -126.77,-121.858 -283.444,-121.858 v 0 -36.607 0.449 c 170.511,0.45 308.441,71.419 308.441,158.909 v 0 c 0,87.487 -137.93,158.906 -308.441,158.906 v 0 z" /></g></g></g></g><g
       id="g34"><g
         id="g36"><g
           id="g42"><g
             id="g44"><path
               id="path54"
               style="fill:url(#linearGradient52);stroke:none"
               d="m 311.117,280.966 c 156.231,0 283.444,-54.451 283.444,-121.855 v 0 c 0,-67.402 -126.77,-121.858 -283.444,-121.858 v 0 -31.248 c 167.834,0.893 303.08,69.186 303.08,153.552 v 0 c 0,84.362 -135.695,152.656 -303.08,153.549 v 0 z m -3.124,32.14 C 138.821,313.106 1.786,244.368 1.786,159.557 v 0 C 1.786,74.748 138.821,6.005 307.993,6.005 v 0 h 3.124 v 31.248 c -156.673,0 -283.445,54.456 -283.445,121.858 v 0 c 0,67.404 126.772,121.855 283.445,121.855 v 0 32.14 z" /></g></g></g></g><g
       id="g56"><g
         id="g58"><g
           id="g64"><g
             id="g66"><path
               id="path78"
               style="fill:url(#radialGradient76);stroke:none"
               d="m 2.236,159.111 c 0,-4.905 0.44,-9.812 1.333,-14.715 v 0 l 26.339,0.879 c -1.338,4.458 -1.787,9.376 -1.787,14.282 v 0 c 0,67.402 126.765,121.859 283.444,121.859 v 0 c 154.888,0 281.209,-53.565 283.438,-120.075 v 0 L 620,162.234 c -2.677,69.636 -98.643,127.661 -228.981,144.624 v 0 h -1.345 c -24.99,3.123 -51.331,4.909 -78.557,4.909 v 0 C 140.607,311.767 2.236,243.474 2.236,159.111 m 0.89,-14.73 h 0.446 c -10e-4,0.004 -0.002,0.01 -0.003,0.015 v 0 z" /></g></g></g></g><g
       id="g80"><g
         id="g82"><g
           id="g88"><g
             id="g90"><path
               id="path102"
               style="fill:url(#radialGradient100);stroke:none"
               d="m 594.113,160.897 v -1.786 C 594.113,91.709 467.348,37.253 310.668,37.253 v 0 c -145.512,0 -265.137,47.312 -281.656,108.022 v 0 L 2.236,144.381 h 0.89 C 15.623,79.212 111.149,25.645 237.023,10.471 v 0 c 23.651,-2.677 48.209,-4.466 73.203,-4.466 v 0 c 170.51,0 308.883,68.294 308.883,153.106 v 0 2.679 z" /></g></g></g></g><g
       id="g104"><g
         id="g106"><g
           id="g112"><g
             id="g114"><path
               id="path124"
               style="fill:url(#linearGradient122);stroke:none"
               d="m 311.117,281.416 c 156.231,0 283.444,-54.457 283.444,-121.859 v 0 c 0,-67.399 -126.77,-121.863 -283.444,-121.863 v 0 -12.939 -0.442 c 163.371,0 295.047,60.252 295.047,134.351 v 0 c 0,74.094 -132.125,133.912 -295.047,134.355 v 0 z m -0.891,11.16 c -163.369,0 -295.942,-59.818 -295.942,-134.358 v 0 c 0,-74.097 132.573,-134.354 295.942,-134.354 v 0 0.449 h 0.891 v 12.94 c -156.673,0 -283.445,54.456 -283.445,121.858 v 0 c 0,67.404 126.772,121.855 283.445,121.855 v 0 11.61 z" /></g></g></g></g><g
       id="g126"><g
         id="g128"><g
           id="g134"><g
             id="g136"><path
               id="path150"
               style="fill:url(#linearGradient148);stroke:none"
               d="m 311.117,281.416 c 156.231,0 283.444,-54.457 283.444,-121.859 v 0 c 0,-67.399 -126.77,-121.863 -283.444,-121.863 v 0 -11.153 -0.449 c 163.371,0 295.495,59.818 295.495,133.019 v 0 c 0,73.203 -132.124,132.57 -295.495,133.015 v 0 z m -0.891,10.265 c -163.369,0 -295.942,-59.367 -295.942,-133.017 v 0 C 14.284,85.01 146.857,25.645 310.226,25.645 v 0 0.447 h 0.442 0.449 v 11.161 c -156.673,0 -283.445,54.456 -283.445,121.858 v 0 c 0,67.404 126.772,121.855 283.445,121.855 v 0 10.715 z" /></g></g></g></g><g
       id="g152"><g
         clip-path="url(#clipPath158)"
         id="g154"><g
           transform="translate(412.8916,219.3701)"
           id="g160"><path
             id="path162"
             style="fill:#501100;fill-opacity:1;fill-rule:nonzero;stroke:none"
             d="m 0,0 c 0,0.446 0.441,0.894 0.441,1.339 0,1.787 -1.337,3.123 -3.126,3.123 h -4.013 c -0.448,0 -0.895,0 -0.895,0.449 V 12.5 c 0,0.444 0.447,0.888 0.895,0.888 h 16.07 3.568 37.496 c 1.786,0 3.126,-0.444 4.021,-2.23 l 49.546,-144.172 v -0.895 c 0,-1.786 -1.338,-2.677 -2.683,-2.677 H 65.61 c -1.781,0 -3.566,1.78 -4.013,3.125 L 31.24,-40.62 c -0.442,0.893 -0.89,1.338 -1.337,1.338 -0.89,0 -1.34,-0.889 -1.34,-1.338 l -30.349,-92.841 c -0.899,-1.788 -2.235,-3.125 -4.022,-3.125 h -35.71 c -1.336,0 -2.676,1.337 -2.676,2.677 v 0.895 L 1.337,0 Z" /></g><g
           transform="translate(294.1572,219.8164)"
           id="g164"><path
             id="path166"
             style="fill:#501100;fill-opacity:1;fill-rule:nonzero;stroke:none"
             d="m 0,0 v 1.34 c 0,1.783 -1.34,3.125 -3.126,3.125 h -4.463 c -0.449,0 -0.895,0.447 -0.895,0.89 v 7.143 c 0,0.443 0.446,0.893 0.895,0.893 h 7.139 4.022 36.152 c 1.785,0 3.123,-1.337 3.123,-3.123 V -133.46 c 0,-1.792 -1.338,-3.124 -3.123,-3.124 H 3.572 c -1.786,0 -3.126,1.332 -3.126,3.124 V -3.125 l 0,3.125 z" /></g><g
           transform="translate(263.8008,82.7842)"
           id="g168"><path
             id="path170"
             style="fill:#501100;fill-opacity:1;fill-rule:nonzero;stroke:none"
             d="m 0,0 h -41.959 c -1.779,0 -4.014,1.337 -5.354,3.125 l -41.509,57.134 c -0.897,0.887 -0.897,0.887 -1.346,1.338 -0.441,0.448 -0.888,0.448 -1.336,0.448 -0.891,0 -1.787,-0.899 -1.787,-1.786 V 59.368 3.125 C -93.291,1.337 -94.631,0 -96.416,0 h -35.261 c -1.786,0 -3.124,1.337 -3.124,3.125 v 134.8 c 0,1.787 -1.339,3.123 -3.125,3.123 h -4.912 c -0.442,0 -0.888,0.449 -0.888,0.896 v 7.586 c 0,0.444 0.446,0.444 0.888,0.444 h 10.714 35.267 c 1.785,0 3.123,-1.336 3.123,-3.12 v -37.05 -2.676 -7.143 -0.892 c 0,-1.34 0.443,-1.789 1.339,-1.789 0.449,0 0.891,0 1.339,0.449 0.447,0.443 0.447,0.443 1.337,1.34 l 5.801,8.035 28.57,40.172 c 1.337,1.786 3.573,3.123 5.358,3.123 h 39.724 c 1.34,0 2.677,-1.337 2.677,-2.679 0,-0.444 0,-0.89 -0.442,-1.784 L -52.223,82.129 c -0.449,-0.894 -0.89,-1.337 -0.89,-1.786 0,-0.893 0,-1.337 0.89,-1.786 L 0.445,5.353 C 0.895,4.903 1.344,4.462 1.344,3.572 1.344,1.78 0,0.891 -1.34,0.891 Z" /></g><g
           transform="translate(410.207,222.0469)"
           id="g172"><path
             id="path174"
             style="fill:#ac0f0a;fill-opacity:1;fill-rule:nonzero;stroke:none"
             d="m 0,0 c 0,0.449 0.449,0.893 0.449,1.342 0,1.783 -1.337,3.126 -3.125,3.126 h -4.013 c -0.448,0 -0.897,0 -0.897,0.444 v 7.586 c 0,0.449 0.449,0.893 0.897,0.893 h 16.064 3.572 37.496 c 1.786,0 3.123,-0.444 4.014,-2.231 l 49.104,-144.174 v -0.896 c 0,-1.78 -1.337,-2.676 -2.682,-2.676 H 65.172 c -1.781,0 -3.568,1.34 -4.016,3.125 l -30.357,92.844 c -0.442,0.89 -0.891,1.34 -1.778,1.34 -0.899,0 -1.345,-0.893 -1.345,-1.34 l -30.352,-92.844 c -0.888,-1.785 -2.232,-3.125 -4.013,-3.125 H -42.4 c -1.342,0 -2.682,1.34 -2.682,2.676 v 0.896 L 0.449,0 Z" /></g><g
           transform="translate(291.9219,222.0469)"
           id="g176"><path
             id="path178"
             style="fill:#ac0f0a;fill-opacity:1;fill-rule:nonzero;stroke:none"
             d="m 0,0 v 1.342 c 0,1.783 -1.786,3.126 -3.126,3.126 h -4.463 c -0.441,0 -0.888,0.444 -0.888,0.893 v 7.586 c 0,0.444 0.447,0.444 0.888,0.444 h 46.871 c 1.786,0 3.123,-1.337 3.123,-3.123 v -143.729 c 0,-1.785 -1.337,-3.125 -3.123,-3.125 H 3.123 c -1.786,0 -3.123,1.34 -3.123,3.125 L 0,-3.123 Z" /></g><g
           transform="translate(261.123,85.4609)"
           id="g180"><path
             id="path182"
             style="fill:#ac0f0a;fill-opacity:1;fill-rule:nonzero;stroke:none"
             d="m 0,0 h -41.51 c -1.785,0 -4.021,1.34 -5.357,3.125 l -41.511,57.131 c -0.891,0.89 -0.891,0.89 -1.339,1.34 -0.449,0.446 -0.896,0.446 -1.34,0.446 -0.896,0 -1.787,-0.896 -1.787,-1.786 V 59.368 3.125 C -92.844,1.34 -94.18,0 -95.967,0 h -34.819 c -1.786,0 -3.123,1.34 -3.123,3.125 v 134.803 c 0,1.783 -1.34,3.126 -3.126,3.126 h -4.912 c -0.441,0 -0.887,0.444 -0.887,0.893 v 7.586 c 0,0.444 0.446,0.444 0.887,0.444 h 10.719 34.812 c 1.787,0 3.127,-1.337 3.127,-3.123 v -37.047 -2.68 -7.142 -0.893 c 0,-0.891 0.894,-1.783 1.785,-1.783 0.447,0 0.891,0 1.338,0.443 l 1.34,1.34 5.806,8.035 28.563,40.17 c 1.338,1.787 3.572,3.127 5.359,3.127 h 39.724 c 1.339,0 2.677,-1.34 2.677,-2.678 0,-0.449 0,-0.892 -0.442,-1.337 L -51.333,82.578 c -0.446,-0.892 -0.888,-1.338 -0.888,-1.786 0,-0.894 0,-1.34 0.888,-1.786 L 1.338,6.248 C 1.787,5.799 2.236,4.912 2.236,4.462 2.236,2.676 0.896,1.785 -0.449,1.785 Z" /></g></g></g></g></svg>